<?xml version="1.0" standalone="no"?>
<!DOCTYPE svg PUBLIC "-//W3C//DTD SVG 20010904//EN"
 "http://www.w3.org/TR/2001/REC-SVG-20010904/DTD/svg10.dtd">
<svg version="1.0" xmlns="http://www.w3.org/2000/svg"
 width="700.000000pt" height="700.000000pt" viewBox="0 0 700.000000 700.000000"
 preserveAspectRatio="xMidYMid meet">
<metadata>
Created by potrace 1.11, written by Peter Selinger 2001-2013
</metadata>
<g transform="translate(0.000000,700.000000) scale(0.100000,-0.100000)"
fill="#000000" stroke="none">
<path d="M0 6991 c0 -5 9 -7 20 -4 26 7 26 13 0 13 -11 0 -20 -4 -20 -9z"/>
<path d="M418 6993 c9 -3 12 -56 12 -214 l0 -209 -215 0 -215 0 1 -27 c1 -24
2 -25 7 -8 7 20 15 20 215 20 l207 0 0 -212 0 -213 -209 0 c-158 0 -211 3
-214 13 -3 6 -5 -6 -5 -28 0 -28 2 -33 6 -19 7 21 12 22 215 22 l207 1 0 -213
0 -212 -215 1 -215 0 1 -25 c1 -17 3 -19 6 -7 4 15 23 17 214 17 l209 0 0
-210 0 -210 -57 -1 c-368 -4 -362 -4 -367 11 -2 8 -4 2 -5 -13 -1 -19 3 -26
11 -21 6 4 103 8 215 8 l203 1 0 -213 0 -213 -215 3 -215 3 1 -25 c1 -14 3
-18 5 -10 4 13 35 15 214 15 l210 0 0 -211 0 -212 -209 0 c-188 0 -210 1 -214
16 -3 9 -5 -3 -4 -28 0 -25 2 -35 4 -22 4 22 5 22 214 22 l209 0 0 -213 0
-212 -207 0 c-131 -1 -211 3 -215 10 -4 5 -8 1 -8 -10 0 -19 6 -20 215 -17
l215 3 -2 -213 -3 -212 -197 1 c-109 1 -198 -2 -198 -6 0 -4 82 -8 182 -9 101
0 191 -1 201 -1 16 -1 17 -18 17 -211 l0 -210 -209 0 c-158 0 -211 3 -214 13
-3 6 -5 -8 -5 -33 1 -25 3 -34 5 -20 l4 25 209 0 210 0 0 -213 0 -213 -215 3
-215 3 1 -25 c1 -15 3 -18 6 -9 4 15 28 17 214 17 l209 1 0 -213 0 -212 -210
0 c-181 0 -210 2 -213 15 -3 9 -5 5 -6 -9 l-1 -25 215 3 215 3 0 -211 c0 -193
-1 -210 -17 -211 -113 -6 -404 -2 -407 6 -3 6 -5 -3 -5 -20 -1 -21 2 -26 8
-16 7 11 49 14 212 14 l204 0 3 -212 2 -211 -215 0 c-118 0 -215 -3 -215 -8 0
-4 97 -7 215 -6 l215 0 0 -212 0 -212 -207 0 c-143 0 -210 4 -215 12 -4 6 -7
-9 -6 -34 1 -30 2 -35 5 -17 l4 27 210 0 209 -1 0 -212 0 -213 -215 1 -215 0
1 -25 c1 -17 3 -19 6 -8 4 16 23 18 214 18 l209 0 0 -209 c0 -191 -2 -210 -18
-214 -9 -3 -1 -5 18 -6 19 0 30 3 25 7 -7 4 -11 84 -10 215 l0 207 212 0 213
0 0 -209 c-1 -208 -1 -210 -23 -214 -12 -2 3 -4 33 -4 30 0 43 2 29 4 l-27 4
0 210 0 209 212 0 212 0 0 -208 c0 -176 -3 -208 -16 -214 -8 -4 3 -6 25 -6 22
0 32 2 23 5 -16 4 -18 23 -18 214 l0 209 210 0 c193 0 210 -1 211 -17 0 -10 1
-104 2 -210 l2 -192 -25 -4 c-16 -3 -12 -5 14 -6 29 -1 36 2 29 11 -5 7 -8
103 -8 213 l1 200 212 3 212 2 0 -209 c0 -158 -3 -211 -13 -214 -6 -3 4 -5 23
-5 19 0 28 2 20 4 -13 4 -15 35 -15 214 l0 210 212 0 212 0 -1 -208 c0 -143
-4 -209 -12 -214 -6 -4 7 -7 29 -6 23 0 30 3 18 5 -23 4 -23 5 -23 214 l0 209
213 0 212 0 0 -207 c0 -200 -1 -208 -20 -215 -17 -5 -15 -6 8 -7 l27 -1 0 215
0 215 210 0 210 0 1 -32 c1 -18 1 -115 1 -215 -1 -182 -1 -183 21 -183 16 0
18 3 8 9 -10 7 -13 52 -14 212 l-1 204 212 3 212 2 0 -209 c0 -191 -2 -210
-17 -214 -12 -3 -10 -5 7 -6 l25 -1 0 215 -1 215 213 0 213 0 -2 -215 -3 -215
25 1 c16 1 19 3 8 6 -15 4 -17 26 -17 214 l0 209 212 0 213 0 -1 -210 c0 -178
-2 -210 -15 -214 -8 -2 -4 -4 10 -5 l25 -1 -3 215 -3 215 213 -2 213 -3 -1
-213 -1 -212 36 2 c33 1 34 2 6 5 l-30 4 2 172 c1 95 2 189 2 210 l1 37 210 0
210 0 0 -209 c0 -158 -3 -211 -12 -214 -7 -3 10 -5 37 -5 30 1 38 3 19 5 l-30
4 0 209 1 210 211 0 212 0 0 -173 c1 -94 1 -191 1 -214 l1 -43 38 2 c36 1 36
1 5 5 l-33 4 0 210 0 209 213 0 212 0 0 -210 c0 -178 -2 -210 -15 -214 -8 -2
-5 -4 8 -5 l22 -1 0 215 0 215 209 0 c158 0 211 -3 214 -12 3 -7 5 5 5 27 0
27 -2 33 -6 20 -7 -20 -15 -20 -214 -20 l-208 0 0 213 0 213 215 -3 215 -3 -1
30 c-1 22 -3 24 -6 8 -4 -21 -7 -21 -214 -21 l-209 0 0 212 0 212 208 0 c199
-1 207 -1 214 -21 5 -16 6 -14 7 10 l1 30 -215 -3 -215 -3 0 431 0 430 209 0
c191 0 210 -2 214 -18 3 -9 5 1 5 23 0 22 -2 33 -5 24 -3 -14 -30 -16 -213
-15 l-210 1 0 212 0 212 209 -1 210 0 4 -27 c3 -21 4 -20 6 9 l1 35 -215 -2
-215 -2 0 212 0 213 215 -1 c140 0 215 3 215 10 0 7 -74 9 -215 7 l-215 -3 2
212 3 211 207 2 207 1 4 -25 c3 -17 4 -13 6 13 1 26 -3 36 -10 31 -9 -5 -273
-8 -396 -5 l-23 1 0 210 0 210 209 0 c158 0 211 -3 214 -12 3 -7 5 5 5 27 0
22 -3 31 -5 20 -4 -20 -11 -20 -213 -20 l-210 0 0 212 0 213 209 0 210 0 4
-42 4 -43 1 50 2 50 -215 -2 -215 -2 0 212 0 213 208 0 c130 0 210 -4 214 -11
4 -5 7 8 6 30 0 23 -3 30 -5 18 -4 -23 -5 -23 -214 -23 l-209 0 0 209 c0 158
3 210 13 213 6 2 103 3 215 3 111 -1 202 2 202 7 0 4 -97 7 -215 5 l-215 -2 0
213 0 212 209 0 c191 0 210 -2 214 -17 3 -10 5 -2 6 17 0 19 -3 30 -7 25 -4
-7 -84 -10 -214 -10 l-208 0 0 211 0 212 209 0 c188 1 210 -1 214 -16 3 -9 4
8 4 38 0 31 -2 41 -4 23 l-4 -33 -210 0 -209 0 0 213 0 212 210 0 c178 0 210
-2 214 -15 2 -8 4 8 3 35 0 28 -2 38 -4 23 l-4 -28 -210 0 -209 0 0 209 c0
191 2 210 18 214 9 3 -1 5 -23 5 -22 0 -33 -2 -25 -4 13 -4 15 -36 15 -214 l0
-210 -212 0 -213 0 0 209 0 210 28 4 c23 3 22 4 -8 6 l-35 1 2 -215 2 -215
-213 0 -212 0 0 208 c0 132 4 210 11 214 5 4 -3 7 -20 7 -16 0 -24 -3 -17 -6
9 -3 12 -56 12 -214 l0 -209 -212 0 -213 0 2 192 c1 106 2 201 2 210 1 9 9 19
19 21 11 3 8 5 -9 6 l-25 1 1 -202 c0 -112 -1 -209 -3 -215 -3 -10 -55 -13
-213 -13 l-209 0 0 209 c0 158 3 211 12 214 7 3 0 6 -17 6 -16 0 -25 -3 -19
-7 6 -4 10 -80 10 -214 l0 -208 -212 0 -212 0 0 209 c-1 208 -1 210 21 214 18
4 17 5 -5 6 -24 1 -28 -3 -28 -26 -1 -16 -1 -112 0 -215 l0 -188 -213 0 -212
0 0 210 c0 179 2 210 15 214 8 2 4 4 -10 5 l-25 1 3 -215 3 -215 -211 0 -210
0 -1 43 c-3 169 0 367 5 376 5 7 -3 11 -21 10 -15 -1 -21 -3 -13 -5 13 -4 15
-35 14 -212 l-1 -207 -212 -3 -211 -2 0 215 c0 118 -4 215 -8 215 -4 0 -8 -97
-7 -215 l1 -215 -213 0 -213 0 0 209 0 210 28 4 c17 3 11 4 -18 5 -25 1 -40
-2 -33 -6 8 -5 11 -67 11 -215 l0 -207 -212 0 -212 0 0 208 c0 200 1 207 20
214 18 5 17 6 -6 7 l-28 1 0 -215 0 -215 -212 2 -212 3 0 203 c0 166 3 205 15
213 10 6 6 9 -16 8 -16 0 -25 -2 -20 -5 8 -3 11 -258 6 -406 -1 -17 -18 -18
-211 -18 l-211 0 3 215 3 215 -25 -1 c-14 -1 -18 -3 -10 -5 13 -4 15 -35 15
-214 l0 -210 -212 0 -211 0 0 209 c0 186 2 210 17 214 9 3 6 5 -9 6 l-25 1 3
-215 3 -215 -213 0 -213 0 0 208 0 207 25 6 c18 5 13 7 -20 7 -25 0 -39 -2
-32 -5z m445 -442 c4 0 6 -94 5 -208 l-3 -208 -207 -3 c-115 -1 -209 1 -209 5
-6 34 -3 409 2 413 6 4 387 5 412 1z m437 0 c5 -1 5 -386 1 -414 0 -4 -95 -7
-210 -7 l-209 1 0 207 c0 113 1 209 3 212 3 4 396 6 415 1z m443 -209 l2 -213
-212 1 -213 1 0 208 c0 114 2 210 4 212 3 3 98 4 211 4 l206 0 2 -213z m435 0
l2 -212 -209 0 c-188 1 -209 3 -213 18 -6 28 -3 386 4 397 4 7 82 10 210 10
l203 0 3 -213z m429 209 c9 -1 11 -56 11 -211 l-1 -210 -211 2 -211 3 -1 205
c0 113 1 207 2 210 2 4 372 5 411 1z m438 0 c7 -1 10 -75 10 -208 l0 -208
-213 -3 -212 -2 0 213 0 212 203 -1 c111 -1 207 -2 212 -3z m446 -18 c0 -13 1
-52 1 -88 0 -106 0 -105 -22 -105 -86 0 -179 -100 -189 -202 -1 -5 -48 -8
-106 -8 l-105 0 0 213 0 212 210 0 210 0 1 -22z m432 18 c4 0 7 -95 7 -211 l0
-210 -105 0 c-93 0 -105 2 -105 18 0 9 -11 40 -24 69 -29 61 -90 110 -148 119
-42 7 -39 -3 -39 139 0 36 0 68 0 73 1 6 379 9 414 3z m439 0 c4 0 6 -94 5
-208 l-2 -208 -207 -3 c-115 -1 -209 1 -209 5 -3 16 -5 408 -3 413 2 4 391 5
416 1z m443 -206 l0 -210 -211 -3 -211 -3 -2 213 -1 213 213 0 212 0 0 -210z
m435 206 c3 0 5 -94 5 -208 l-1 -208 -212 -3 -212 -2 0 212 0 213 208 -1 c114
-1 209 -2 212 -3z m438 -208 l2 -212 -210 -1 -210 0 -1 60 c0 33 0 110 0 170
0 61 0 129 0 153 l1 42 208 0 207 0 3 -212z m440 -1 l0 -213 -212 3 -211 3 -1
205 c0 113 0 207 2 210 1 3 97 5 212 5 l210 0 0 -213z m438 13 c0 -110 -2
-206 -4 -212 -3 -10 -55 -13 -213 -13 l-209 0 0 209 c1 115 3 211 5 213 2 2
97 3 212 3 l208 0 1 -200z m-5691 -450 l0 -210 -207 0 c-136 -1 -208 3 -209
10 -3 25 -5 401 -2 407 2 4 97 6 211 5 l207 -2 0 -210z m440 0 l0 -211 -210 1
-210 0 -2 212 -1 211 211 -1 212 -2 0 -210z m436 186 c3 -87 -2 -386 -7 -390
-3 -3 -98 -6 -210 -6 l-204 -1 0 212 0 213 210 -1 210 0 1 -27z m439 -185 l0
-212 -207 2 c-115 1 -210 2 -213 3 -5 1 -5 377 -1 412 1 4 96 7 211 7 l210 1
0 -213z m438 0 l1 -211 -210 0 c-137 -1 -210 3 -211 10 0 5 -2 101 -2 212 l-1
202 211 -1 212 0 0 -212z m438 9 c0 -110 -1 -205 -3 -210 -2 -7 -79 -10 -211
-10 l-207 0 -2 212 -2 211 212 -1 212 -2 1 -200z m222 -8 l-3 -212 -102 0
-103 -1 0 212 0 212 105 0 105 0 -2 -211z m652 -1 l0 -212 -105 0 -105 1 0
212 0 212 105 -1 105 0 0 -212z m437 -1 l2 -211 -209 0 c-116 0 -211 3 -211 6
-3 12 -5 406 -2 411 1 4 96 6 210 5 l208 -1 2 -210z m439 1 l0 -212 -206 2
c-113 1 -208 2 -212 3 -8 1 -10 399 -3 411 3 4 98 8 213 8 l208 1 0 -213z
m439 19 c0 -104 -2 -199 -5 -210 -5 -20 -12 -21 -212 -21 l-208 1 0 211 0 212
212 -2 213 -1 0 -190z m435 -19 l0 -212 -207 2 c-115 1 -210 2 -213 3 -3 0 -4
67 -3 148 1 82 2 176 2 210 l1 61 210 0 210 0 0 -212z m437 -1 l2 -211 -210 1
c-135 0 -210 3 -210 10 -1 5 -2 101 -3 212 l-1 202 210 -2 210 -2 2 -210z
m438 0 l0 -210 -210 0 -210 0 -3 200 c-1 110 0 205 2 212 4 9 58 11 213 10
l208 -2 0 -210z m-5685 -435 l0 -210 -37 -1 c-212 -3 -383 -3 -384 1 -1 3 -2
98 -3 213 l-1 207 212 0 213 0 0 -210z m436 -2 c0 -203 0 -208 -20 -209 -12 0
-106 -1 -211 -1 l-190 0 -2 211 -2 211 212 -2 212 -3 1 -207z m435 197 c0 -8
1 -31 1 -50 0 -68 0 -67 -24 -54 -27 15 -113 15 -151 0 -84 -33 -141 -118
-139 -207 0 -29 6 -62 12 -73 12 -23 16 -21 -77 -24 l-38 0 -3 211 -2 212 210
0 c180 0 210 -2 211 -15z m439 -195 l0 -210 -66 0 -65 0 -146 145 -146 145 -1
65 -1 65 213 0 212 0 0 -210z m438 0 l0 -210 -32 -1 c-44 -1 -369 -1 -381 0
-7 1 -10 72 -9 209 1 114 2 208 3 210 0 1 95 2 210 2 l209 0 0 -210z m437 -5
l0 -210 -165 2 c-91 1 -186 2 -212 2 l-48 1 0 210 0 210 212 -2 213 -3 0 -210z
m230 183 c18 -82 81 -150 157 -170 27 -6 48 -17 49 -22 0 -6 0 -51 0 -101 -2
-105 -2 -102 0 -223 1 -51 0 -95 -2 -96 -2 -2 -45 -6 -95 -10 -51 -3 -98 -8
-105 -10 -8 -3 -33 -7 -57 -10 -38 -5 -90 -16 -144 -32 -17 -5 -18 6 -18 129
0 99 3 136 13 139 6 3 96 4 200 3 103 -1 187 1 187 6 0 5 -21 8 -47 7 -27 0
-117 0 -200 1 l-153 1 0 210 0 210 104 0 104 0 7 -32z m645 -178 c0 -193 -1
-210 -17 -211 -95 -2 -394 0 -400 4 -6 4 -9 126 -4 193 1 7 16 15 35 18 87 17
166 105 175 199 1 4 48 7 106 7 l105 0 0 -210z m440 0 c-1 -115 -4 -210 -8
-211 -4 0 -99 -1 -212 -2 l-205 -2 0 213 0 212 212 0 213 0 0 -210z m436 6
c-1 -112 -4 -208 -8 -212 -6 -5 -322 -9 -405 -5 -9 1 -12 56 -11 211 l0 210
212 0 212 0 0 -204z m435 187 c1 -10 2 -39 2 -66 l-1 -47 -147 -146 -147 -145
-64 -2 -64 -2 0 213 0 212 210 0 c193 0 210 -1 211 -17z m439 -193 c0 -115 -3
-210 -7 -211 -5 0 -34 -1 -66 -2 -31 -1 -57 -2 -57 -2 0 0 6 20 14 45 22 77 3
148 -57 210 -18 18 -47 39 -65 47 -41 17 -132 19 -161 4 -23 -13 -23 -12 -23
79 0 17 1 32 1 35 1 3 96 5 211 5 l210 0 0 -210z m436 -2 c2 -206 2 -208 -20
-209 -33 -1 -380 -1 -391 0 -7 1 -11 72 -11 211 l0 210 211 -2 210 -3 1 -207z
m439 0 l0 -208 -85 -1 c-104 -1 -322 -1 -332 0 -5 1 -8 96 -8 211 l0 210 213
-2 212 -3 0 -207z m-5688 -436 l2 -212 -212 2 -212 3 0 205 c0 153 3 206 12
210 7 3 101 5 210 4 l198 0 2 -212z m433 209 c3 -1 6 -95 6 -211 l0 -210 -212
0 -211 0 -1 209 c0 186 2 210 16 213 13 3 386 2 402 -1z m297 -146 c158 -159
148 -141 144 -252 l-1 -23 -210 0 -210 0 0 209 c0 236 -7 219 83 215 47 -2 49
-3 194 -149z m583 -62 l0 -213 -213 0 -212 0 1 48 c1 26 2 50 3 54 1 5 18 -8
38 -27 105 -99 262 -82 340 37 24 36 28 52 28 112 -1 77 -13 109 -64 163 -34
35 -29 40 36 39 l43 -1 0 -212z m426 208 c8 -1 12 -61 12 -211 l0 -210 -212 0
-212 0 0 210 1 209 30 3 c26 3 349 2 381 -1z m440 -4 c5 -3 9 -65 9 -137 l0
-132 -95 -37 c-52 -20 -126 -54 -165 -74 -52 -28 -81 -37 -117 -37 l-48 0 0
213 0 212 204 -1 c112 -1 207 -4 212 -7z m882 -130 c1 -83 -1 -137 -7 -137 -5
0 -21 4 -35 10 -41 15 -194 40 -286 47 -47 3 -87 7 -89 9 -3 3 -5 188 -2 204
1 3 94 5 209 5 l207 -1 3 -137z m424 134 c15 -1 17 -21 17 -211 l1 -210 -47 0
c-36 0 -68 11 -132 44 -48 24 -120 56 -161 71 -41 15 -77 30 -80 32 -2 2 -5
63 -5 136 l-1 132 25 5 c20 4 313 5 383 1z m443 0 c7 -1 11 -71 10 -208 l0
-208 -211 -3 -212 -2 0 212 -1 213 202 -2 c111 0 207 -2 212 -2z m117 -11 c-2
-8 -14 -25 -27 -38 -62 -61 -72 -185 -22 -261 78 -118 235 -134 340 -35 21 20
38 30 38 22 1 -7 1 -31 2 -53 l0 -40 -212 -3 -211 -2 0 209 c0 231 -4 218 65
216 21 0 29 -5 27 -15z m768 -197 l0 -213 -210 0 c-161 0 -210 3 -211 13 -1 6
-1 35 -1 64 l0 51 143 145 c79 79 151 146 159 149 8 2 38 4 67 4 l53 -1 0
-212z m437 -1 l1 -212 -212 0 -212 0 1 206 c0 186 2 208 17 213 10 3 104 6
210 6 l193 -1 2 -212z m434 208 c1 -3 2 -98 3 -212 l1 -208 -213 0 -213 0 1
209 c1 208 2 210 23 213 37 5 397 4 398 -2z m-5686 -645 l0 -210 -210 0 -210
0 -1 200 c0 110 1 205 3 210 2 7 76 11 211 10 l207 0 0 -210z m440 -1 l1 -212
-212 0 -212 -1 0 207 c0 113 1 209 3 212 2 3 97 6 212 5 l208 0 0 -211z m435
201 c1 -35 1 -365 1 -387 l-1 -26 -210 0 -210 0 0 207 c0 114 2 210 5 212 9
10 415 4 415 -6z m438 -201 l2 -212 -212 2 -212 1 -1 200 c0 110 1 205 2 210
2 7 78 10 211 10 l207 0 3 -211z m442 185 c0 -20 -14 -37 -62 -74 -76 -59
-213 -196 -267 -268 -30 -39 -47 -53 -68 -55 l-28 -2 -1 208 c0 114 3 209 8
212 4 3 100 6 213 5 l205 0 0 -26z m80 24 c0 0 -16 -10 -35 -22 -32 -19 -36
-19 -33 -3 4 23 15 30 44 28 13 0 24 -2 24 -3z m1668 -16 c4 -22 -17 -21 -47
2 l-24 18 34 -1 c23 -1 35 -7 37 -19z m438 -194 l-1 -213 -26 0 c-20 0 -36 13
-68 55 -56 74 -203 221 -273 273 -46 34 -58 48 -58 70 l0 27 213 1 213 0 0
-213z m434 206 c4 -6 5 -260 1 -386 l-1 -31 -210 0 -210 0 0 211 0 212 208 1
c114 0 209 -3 212 -7z m440 -205 l0 -212 -210 0 c-208 0 -210 0 -211 21 -3 68
1 389 5 395 2 4 97 8 210 8 l206 0 0 -212z m437 1 l-2 -210 -210 0 -210 0 -1
205 c0 113 3 207 8 210 4 3 100 6 212 5 l205 0 -2 -210z m434 205 c1 -3 2 -98
3 -212 l1 -206 -210 1 -210 2 -3 200 c-1 110 -1 204 2 210 4 10 415 16 417 5z
m-3060 -222 c0 -7 1 -53 1 -103 l1 -90 -212 -2 -211 -2 0 64 0 63 78 26 c141
47 341 73 343 44z m204 -2 c80 -17 128 -31 178 -49 l57 -22 0 -62 0 -61 -210
0 c-150 0 -210 3 -210 12 -1 6 -2 53 -3 105 l-2 94 85 -6 c47 -4 94 -8 105
-11z m-640 -134 l0 -57 -92 -1 c-51 -1 -93 2 -93 5 0 8 30 27 115 73 39 21 70
38 70 38 0 0 0 -26 0 -58z m1013 -10 c34 -20 62 -39 62 -43 0 -3 -42 -7 -93
-7 l-92 -2 0 59 0 59 30 -15 c16 -8 58 -31 93 -51z m-3198 -273 c-1 -153 -5
-209 -13 -210 -7 -1 -102 -2 -212 -3 l-200 -1 1 210 c1 116 2 211 3 213 0 1
96 2 211 2 l211 -1 -1 -210z m431 204 c1 -5 2 -99 3 -210 1 -134 -2 -204 -9
-206 -5 -2 -100 -3 -210 -3 l-200 1 -2 213 -1 212 209 0 c115 0 210 -3 210 -7z
m439 0 c1 -14 1 -387 1 -403 -1 -13 -30 -15 -208 -15 l-208 0 -3 213 -2 212
210 0 c115 0 210 -3 210 -7z m440 -40 c0 -36 -10 -66 -42 -128 -23 -44 -56
-118 -73 -165 l-30 -85 -130 -1 c-72 0 -134 1 -140 3 -8 3 -12 283 -6 401 l1
22 210 0 210 0 0 -47z m39 12 c-12 -19 -22 -35 -23 -35 -3 0 -1 36 3 63 1 4
10 7 21 7 19 0 19 -1 -1 -35z m833 23 c2 -7 4 -103 4 -213 l-1 -200 -200 -1
c-110 0 -206 2 -212 4 -9 3 -13 33 -13 106 0 120 -1 118 117 234 l85 82 108 0
c77 0 109 -4 112 -12z m439 -5 c3 -102 3 -403 -1 -404 -15 -4 -397 -5 -407 -1
-10 3 -13 55 -13 213 l0 209 210 0 c193 0 210 -1 211 -17z m439 -196 l0 -212
-210 0 c-180 0 -210 2 -211 15 -1 19 -1 404 0 408 1 1 96 2 211 2 l210 0 0
-213z m340 114 l98 -99 -1 -113 -2 -114 -207 0 c-115 0 -209 2 -209 5 -4 14
-5 406 -2 413 2 4 54 7 115 7 l110 0 98 -99z m536 66 c1 -34 -9 -35 -24 -2
-16 34 -15 37 6 33 11 -2 17 -13 18 -31z m438 -182 l1 -211 -139 1 -140 0 -36
95 c-20 52 -52 126 -73 165 -28 52 -37 81 -37 117 l0 48 212 -2 212 -3 0 -210z
m436 2 l0 -212 -210 0 -210 0 -1 30 c0 17 -1 112 -2 213 l-2 182 213 0 212 0
0 -213z m437 1 l-2 -213 -203 0 c-112 0 -207 2 -211 5 -4 3 -7 98 -7 213 l0
207 212 0 212 0 -1 -212z m438 -3 l0 -210 -200 -1 c-110 0 -206 2 -212 4 -10
3 -13 55 -13 213 l0 209 212 -2 213 -3 0 -210z m-2128 -77 c39 -63 63 -112 63
-127 0 -4 -24 -7 -52 -7 l-53 2 -1 97 c-1 53 0 97 1 97 2 0 21 -28 42 -62z
m-1810 -40 l-2 -93 -52 0 c-29 -1 -53 3 -53 7 0 22 89 178 102 178 4 0 6 -42
5 -92z m-1748 -213 c0 -94 -2 -105 -17 -105 -10 0 -42 -12 -71 -26 -61 -31
-108 -89 -117 -146 -7 -42 1 -39 -129 -39 -36 0 -71 0 -78 0 -9 1 -12 50 -12
211 l0 210 212 0 212 0 0 -105z m437 0 l-1 -105 -212 0 -211 0 0 105 0 105
212 0 212 0 0 -105z m437 -277 c-1 -211 -2 -404 -2 -430 l-1 -48 -210 0 -210
0 0 109 c0 81 3 109 13 108 82 -3 177 80 193 170 3 15 7 29 9 33 2 3 47 4 99
3 55 -2 96 1 96 6 0 5 -30 9 -67 9 -135 0 -130 -2 -137 36 -15 78 -92 153
-173 171 l-33 7 0 104 0 104 213 0 212 0 -2 -382z m283 362 c-3 -11 -8 -28
-11 -39 -14 -48 -36 -195 -41 -271 -4 -47 -8 -87 -10 -89 -5 -6 -192 -4 -201
2 -6 4 -9 298 -4 400 1 15 14 17 137 17 131 0 135 -1 130 -20z m592 -190 c1
-123 -3 -210 -9 -211 -5 0 -38 -1 -74 -1 -36 0 -80 1 -98 1 l-33 1 7 73 c11
113 23 168 56 270 l25 77 63 0 63 0 0 -210z m437 0 c0 -194 -1 -210 -17 -211
-10 0 -101 0 -203 0 -102 0 -189 0 -195 0 -6 1 -10 78 -10 211 l0 210 213 0
212 0 0 -210z m436 193 c5 -136 2 -396 -5 -400 -4 -3 -100 -6 -212 -7 l-204
-1 0 213 0 212 210 0 c193 0 210 -1 211 -17z m439 -193 l0 -210 -22 -1 c-29
-1 -379 -1 -393 0 -6 1 -9 76 -8 208 1 115 2 209 2 211 1 1 96 2 211 2 l210 0
0 -210z m440 0 c-1 -157 -4 -210 -13 -211 -16 0 -332 -1 -377 0 l-35 1 0 210
0 210 212 0 213 0 0 -210z m165 128 c32 -99 55 -224 55 -293 l0 -50 -102 1
-103 2 -2 211 -1 211 64 0 63 0 26 -82z m707 60 c6 -37 2 -387 -5 -394 -6 -7
-195 -9 -202 -3 -1 2 -6 45 -9 95 -3 50 -8 98 -10 105 -3 8 -7 33 -10 57 -5
38 -16 90 -32 145 -5 16 6 17 129 17 132 0 135 0 139 -22z m438 -82 l0 -104
-32 -7 c-82 -18 -159 -92 -173 -168 -4 -20 -12 -37 -19 -38 -60 -3 -187 -1
-192 4 -5 4 -8 328 -5 405 1 9 50 12 211 12 l210 0 0 -104z m438 -1 l1 -105
-213 0 -212 0 0 105 0 105 212 0 211 0 1 -105z m437 -107 l1 -208 -28 -1 c-16
0 -57 0 -93 0 -36 0 -71 0 -79 0 -8 1 -16 17 -20 39 -13 85 -103 162 -198 171
-5 1 -8 48 -8 106 l0 105 212 -2 213 -3 0 -207z m-5909 -227 c6 -1 14 -18 18
-39 13 -85 102 -162 199 -171 4 -1 7 -48 7 -106 l0 -105 -213 0 -212 0 0 210
0 209 30 3 c24 2 122 2 171 -1z m1320 -3 c1 -2 5 -39 8 -83 7 -113 25 -225 52
-317 5 -17 -6 -18 -129 -18 -99 0 -136 3 -139 13 -9 28 -1 399 10 406 9 6 191
5 198 -1z m630 3 c22 -1 22 -3 22 -211 l0 -210 -63 0 -64 0 -26 83 c-40 126
-69 319 -51 338 4 3 84 3 182 0z m429 0 l30 -1 0 -210 0 -210 -212 0 -213 0 0
209 0 210 28 3 c22 2 224 2 367 -1z m450 0 c19 -1 20 -7 19 -208 l-2 -208
-211 -3 -211 -2 0 209 c0 188 2 210 17 213 13 2 298 2 388 -1z m443 0 c9 -1
12 -50 12 -211 l0 -210 -210 0 c-203 0 -210 1 -211 20 0 11 -1 104 -1 208 l-1
187 29 5 c22 4 318 4 382 1z m424 0 l27 -1 0 -210 -1 -210 -211 0 -212 0 0
210 c0 202 0 209 20 212 16 2 267 2 377 -1z m239 0 c9 -1 10 -25 6 -83 -4 -46
-8 -90 -10 -98 -2 -8 -7 -31 -11 -50 -4 -19 -19 -70 -33 -112 l-25 -78 -64 0
-64 0 1 209 c0 208 1 210 22 213 18 2 140 2 178 -1z m659 0 c3 -1 5 -94 4
-208 l0 -208 -137 -3 c-75 -1 -137 -1 -137 0 0 2 5 19 10 38 17 59 41 211 46
290 3 41 6 80 8 85 3 8 160 12 206 6z m219 0 c5 -1 12 -16 15 -35 15 -78 92
-153 174 -171 l32 -7 0 -104 0 -104 -210 0 c-193 0 -210 1 -211 18 -4 138 1
396 9 401 8 5 144 6 191 2z m1086 0 c7 -1 10 -77 10 -211 l0 -210 -212 0 -213
0 0 105 c0 58 3 105 8 106 57 5 107 31 149 76 28 30 39 54 58 128 2 8 115 11
200 6z m-5240 -318 l1 -103 -212 0 -212 0 0 105 -1 105 212 -2 212 -3 0 -102z
m4812 0 l2 -103 -213 0 -213 0 1 105 1 105 210 -2 210 -3 2 -102z m-5247 -330
l0 -212 -209 -1 c-157 0 -210 3 -213 13 -4 10 -3 355 1 397 1 13 31 15 211 15
l210 0 0 -212z m430 208 c5 -1 5 -387 1 -413 0 -5 -94 -7 -208 -5 l-208 2 -2
200 c-1 110 -1 205 1 210 2 7 76 10 207 9 112 -1 206 -2 209 -3z m441 -26 c1
-41 1 -322 0 -362 l-1 -32 -210 0 -210 0 0 212 0 212 210 0 210 0 1 -30z m329
-65 c20 -52 52 -126 73 -165 28 -52 37 -81 37 -117 l0 -48 -210 0 c-115 1
-210 4 -211 8 0 4 -2 99 -2 212 l-2 206 139 -1 140 0 36 -95z m547 -3 c1 -53
0 -97 -2 -97 -11 0 -105 170 -105 190 0 4 24 6 53 6 l52 -2 2 -97z m428 94 c7
-1 10 -73 9 -203 -1 -112 -2 -206 -3 -209 0 -4 -51 -8 -111 -8 l-110 -2 -100
100 -100 100 0 109 c0 60 2 111 4 113 4 4 382 4 411 0z m446 -6 c0 -5 1 -100
1 -210 l2 -200 -212 -3 -212 -3 0 213 0 213 210 0 c134 0 210 -4 211 -10z
m439 -202 l0 -213 -210 0 c-210 1 -210 1 -211 23 -5 123 -2 398 4 400 4 1 99
2 212 2 l205 0 0 -212z m433 208 c4 0 7 -51 6 -112 l-1 -112 -98 -98 -98 -99
-110 0 c-79 0 -111 4 -114 13 -4 10 -3 354 1 397 1 13 29 15 204 14 111 -1
206 -2 210 -3z m127 -4 c0 -13 -67 -138 -90 -167 l-20 -25 2 95 c0 52 2 97 4
100 5 10 104 6 104 -3z m748 -4 c6 -9 8 -258 3 -385 l-1 -28 -210 0 -210 1 0
46 c0 36 11 68 49 142 27 53 56 121 66 151 29 92 18 86 165 85 87 0 133 -4
138 -12z m440 -200 l2 -212 -210 -1 c-160 0 -210 3 -211 13 0 6 -1 102 -2 212
l-2 200 210 0 210 0 3 -212z m437 197 c2 -8 4 -104 3 -213 l0 -198 -212 1
-212 1 2 212 c1 117 2 212 3 212 0 0 93 0 206 0 174 0 206 -2 210 -15z m437 0
c2 -8 4 -103 3 -210 l0 -195 -212 -3 -213 -2 0 208 c0 115 2 211 4 213 2 2 97
4 210 4 175 0 205 -2 208 -15z m-4333 -376 l21 -35 -22 3 c-18 2 -22 10 -23
36 0 17 0 32 1 32 1 0 12 -16 23 -36z m2587 1 c0 -30 -4 -35 -23 -35 l-22 0
20 35 c12 19 22 35 23 35 1 0 2 -16 2 -35z m-3941 -260 l0 -210 -207 -1 c-115
0 -209 2 -209 5 -3 15 -5 407 -2 413 2 4 97 6 211 5 l207 -2 0 -210z m440 7
c0 -125 -4 -207 -10 -211 -5 -5 -100 -8 -210 -7 l-200 1 -2 211 -2 212 212 -2
212 -1 0 -203z m435 195 c1 -17 1 -378 1 -397 -1 -13 -30 -15 -211 -16 l-210
0 0 212 0 213 210 0 c160 1 210 -2 210 -12z m440 -201 l0 -212 -207 2 c-115 1
-210 2 -213 3 -4 1 -5 388 -1 413 1 3 96 6 211 6 l210 0 0 -212z m109 159 c56
-74 203 -221 274 -273 45 -34 57 -48 57 -70 l0 -27 -210 -1 c-140 0 -210 3
-213 10 -3 10 -2 389 2 409 0 4 12 7 25 7 17 0 35 -15 65 -55z m767 -6 l1 -57
-36 17 c-41 18 -105 56 -139 82 -22 17 -20 18 75 16 l97 -2 2 -56z m437 -19
c-1 -44 -2 -93 -2 -108 -1 -26 -3 -28 -38 -25 -101 9 -197 27 -285 54 l-98 30
0 63 0 64 213 1 212 1 -2 -80z m437 15 l0 -63 -62 -21 c-134 -44 -357 -78
-359 -54 -1 14 -1 157 0 180 1 21 2 21 211 21 l210 0 0 -63z m200 56 c0 -9
-140 -90 -168 -97 -16 -5 -18 0 -16 43 1 26 2 51 3 55 1 10 181 9 181 -1z
m666 1 c6 -4 10 -80 10 -212 l0 -205 -212 0 -213 0 1 28 c1 23 13 37 57 70 69
50 214 195 271 271 40 53 61 65 86 48z m445 0 c4 -28 3 -405 -1 -411 -3 -4
-98 -7 -212 -7 l-208 0 0 212 0 213 210 0 c116 0 210 -3 211 -7z m439 -205 l0
-212 -210 -1 -210 0 -1 25 c0 37 0 385 0 393 1 3 96 6 211 6 l210 1 0 -212z
m435 -2 l0 -210 -200 -1 c-110 0 -205 1 -210 3 -7 2 -10 74 -9 211 1 114 2
208 3 209 0 1 94 1 209 0 l207 -2 0 -210z m440 0 l0 -210 -213 -1 -212 0 0
206 c0 114 3 209 6 212 3 4 99 6 212 5 l207 -2 0 -210z m-2189 -203 c-4 -3
-20 -7 -37 -8 -34 -2 -32 1 8 26 23 14 29 15 31 3 2 -8 1 -17 -2 -21z m-1696
13 c17 -9 30 -17 30 -19 0 -2 -32 -1 -62 3 -9 1 -11 31 -3 31 4 0 19 -7 35
-15z m-1803 -247 l-2 -211 -208 -1 c-114 -1 -208 1 -208 4 -4 13 -5 406 -2
413 2 4 98 7 213 7 l209 0 -2 -212z m438 2 l0 -210 -30 -1 c-97 -3 -372 -4
-382 -1 -8 3 -11 62 -11 213 l-1 209 212 0 212 0 0 -210z m438 144 l0 -62
-147 -147 -146 -148 -62 -1 -63 -1 -3 213 -2 212 212 -2 212 -3 -1 -61z m437
-144 c0 -193 -1 -210 -17 -211 -93 -6 -98 -3 -57 39 59 61 81 163 51 235 -63
149 -248 183 -364 67 -18 -18 -33 -31 -34 -29 -1 7 -2 74 0 92 1 16 18 17 211
17 l210 0 0 -210z m437 -2 l-2 -212 -210 0 -210 0 -1 205 c-1 112 1 207 3 212
2 4 98 7 213 7 l209 0 -2 -212z m192 168 c48 -24 121 -56 163 -72 44 -16 78
-35 80 -44 2 -8 4 -71 3 -140 l0 -124 -190 -1 c-104 0 -200 2 -212 4 -23 3
-23 3 -23 212 l0 209 47 0 c36 0 67 -10 132 -44z m1560 -166 l1 -210 -33 -1
c-102 -4 -366 -1 -378 3 -12 5 -14 33 -14 139 l0 133 95 36 c52 20 124 52 160
72 49 27 78 36 117 37 l52 1 0 -210z m436 8 c0 -112 -3 -207 -7 -213 -5 -8
-320 -12 -405 -6 -9 1 -12 56 -12 211 l0 210 213 0 212 0 -1 -202z m440 147
c0 -30 -1 -55 -2 -55 -1 0 -19 16 -40 35 -52 48 -110 69 -177 63 -182 -15
-260 -238 -131 -371 37 -38 33 -45 -27 -41 -21 1 -38 -2 -38 -6 0 -4 28 -8 61
-9 l61 -1 146 -146 145 -145 1 -62 1 -62 -212 -3 -213 -2 0 430 0 430 213 0
212 0 0 -55z m435 -155 c0 -236 9 -213 -83 -213 l-47 1 -145 146 c-145 146
-145 148 -146 194 -2 91 -25 82 211 82 l210 0 0 -210z m438 0 l0 -210 -27 -1
c-14 -1 -109 -1 -211 -2 l-185 0 -1 212 0 211 212 0 212 0 0 -210z m437 -5 l0
-209 -190 -1 c-105 0 -200 2 -212 4 -23 3 -23 3 -23 212 l0 209 213 -2 212 -3
0 -210z m-3440 55 c42 -16 191 -40 285 -46 47 -4 86 -7 88 -9 1 -1 4 -48 5
-104 2 -84 -1 -101 -13 -102 -46 -3 -387 -4 -397 -1 -16 5 -19 272 -4 272 5 0
22 -5 36 -10z m815 -125 c0 -122 -2 -135 -17 -136 -10 -1 -105 -2 -211 -3
-186 -1 -192 0 -193 19 -2 50 -1 187 2 190 2 1 42 5 89 9 47 3 110 10 140 15
30 6 69 13 85 16 17 3 44 9 60 14 17 5 33 10 38 10 4 1 7 -60 7 -134z m-3087
-154 l27 -1 0 -210 0 -210 -212 0 -213 0 0 210 -1 209 26 3 c21 2 272 2 373
-1z m455 -5 c4 -4 7 -100 7 -212 l1 -204 -212 0 -212 0 0 209 0 210 46 3 c90
6 362 1 370 -6z m136 -46 c-25 -98 29 -206 126 -248 40 -17 129 -19 159 -2 19
10 21 8 22 -22 1 -18 1 -41 0 -50 -1 -10 2 -18 7 -18 5 0 9 22 9 49 l0 49 148
147 148 147 63 2 64 1 0 -212 0 -213 -216 0 c-141 0 -213 3 -209 10 3 6 1 10
-4 10 -6 0 -11 -4 -11 -10 0 -6 -77 -10 -210 -10 l-210 0 0 209 0 210 28 3
c15 2 43 1 63 0 l36 -4 -13 -48z m1178 51 c4 -1 6 -94 5 -208 l-2 -208 -210
-3 -210 -2 0 207 c0 155 3 209 12 213 9 4 362 4 405 1z m436 -6 c4 -4 7 -99 7
-211 l0 -204 -212 0 -213 0 0 209 c0 130 4 211 10 213 19 6 401 0 408 -7z
m435 2 c8 -3 12 -36 11 -101 -1 -53 -3 -99 -6 -101 -2 -2 -15 -6 -30 -9 -91
-16 -168 -102 -177 -198 -1 -5 -48 -8 -106 -8 l-105 0 0 209 0 210 33 3 c46 4
367 0 380 -5z m440 4 c4 -1 7 -95 7 -211 l0 -210 -105 0 -105 0 -6 28 c-11 51
-26 81 -56 113 -31 32 -100 68 -130 69 -21 0 -20 -5 -20 105 0 109 -1 103 19
107 13 2 364 1 396 -1z m445 -210 l2 -211 -212 0 -213 0 0 213 0 212 210 -1
210 -1 3 -212z m407 210 l31 -1 0 -210 0 -210 -212 0 -212 0 0 207 c0 115 1
210 3 213 2 4 220 4 390 1z m905 -208 l0 -213 -209 0 -210 0 -3 33 c-2 17 -1
46 0 63 l4 31 48 -13 c99 -26 206 29 248 126 17 40 19 129 3 159 -10 18 -8 20
21 23 18 2 48 3 66 3 l32 0 0 -212z m438 -1 l-1 -212 -211 2 -211 3 0 207 c-1
201 0 207 20 210 11 2 106 3 212 3 l191 0 0 -213z m430 203 c4 -4 7 -99 7
-211 l0 -204 -213 0 -213 0 1 209 c1 115 3 211 5 212 6 7 406 1 413 -6z
m-5680 -640 l-3 -210 -207 -2 c-151 -1 -208 2 -209 10 -3 29 -5 393 -2 402 2
7 77 11 213 11 l210 0 -2 -211z m427 206 c7 0 10 -70 9 -198 0 -109 -2 -203
-3 -209 -1 -9 -60 -12 -210 -12 l-210 1 0 196 c0 108 2 203 5 211 3 13 32 15
201 14 109 0 203 -2 208 -3z m446 -16 c0 -11 0 -105 0 -210 l0 -190 -208 0
-208 0 -3 200 c-1 110 -1 204 2 210 2 7 73 11 210 11 200 -1 206 -1 207 -21z
m439 -191 l0 -212 -209 0 c-186 0 -210 2 -213 17 -3 13 -2 406 1 406 1 0 96 0
211 1 l210 0 0 -212z m437 1 l-2 -210 -207 -2 c-187 -2 -207 0 -211 15 -4 14
-2 406 2 408 0 0 95 0 210 0 l210 -1 -2 -210z m433 204 c3 -4 5 -99 5 -211 l0
-203 -212 -1 -213 -1 0 207 c0 114 2 209 4 211 8 8 411 6 416 -2z m228 -206
l2 -211 -105 0 -105 1 0 211 0 212 103 0 102 -1 3 -212z m652 1 l0 -212 -105
0 -105 0 0 207 c0 114 2 210 5 212 2 3 49 5 105 5 l100 0 0 -212z m437 1 l-2
-210 -210 0 -210 0 -1 200 c0 110 1 205 3 210 2 7 77 11 213 11 l210 0 -3
-211z m428 206 c7 0 10 -75 10 -210 l0 -208 -211 -1 -212 0 -1 196 c0 108 2
204 4 212 4 14 33 16 203 14 108 0 202 -2 207 -3z m445 -2 c4 -6 5 -243 1
-381 l-1 -36 -210 0 -210 1 0 211 0 212 208 0 c114 0 209 -3 212 -7z m440
-205 l0 -212 -210 0 c-207 1 -210 1 -211 22 -1 28 -1 367 0 387 1 13 28 15
211 15 l210 0 0 -212z m435 1 l0 -210 -210 0 -210 0 -1 205 c0 113 0 207 2
210 1 3 96 5 211 5 l208 0 0 -210z m438 200 c2 -5 3 -100 3 -210 l-1 -200
-210 0 -210 0 -3 200 c-1 110 -1 204 2 210 5 14 414 15 419 0z m-5685 -638
l-3 -212 -195 0 c-107 -1 -202 1 -210 3 -13 3 -15 34 -15 212 l0 210 213 0
212 0 -2 -213z m438 13 c1 -107 0 -202 -2 -210 -3 -13 -34 -15 -211 -15 l-208
0 -2 200 c-1 110 0 205 2 212 3 9 56 12 212 10 l208 -2 1 -195z m434 173 c1
-54 2 -329 1 -363 l-1 -36 -210 1 -210 0 0 213 0 212 210 0 210 0 0 -27z m440
-186 l0 -212 -212 0 -212 0 -1 205 c0 113 1 208 3 213 2 4 97 7 213 7 l209 0
0 -213z m438 3 c0 -149 -3 -210 -11 -212 -10 -4 -392 -3 -408 1 -4 1 -5 408 0
419 0 1 95 2 210 2 l210 -1 -1 -209z m434 198 c4 -11 3 -393 -1 -408 0 -3 -95
-5 -211 -5 l-210 0 0 206 c0 113 3 209 7 212 3 4 97 7 209 7 153 0 203 -3 206
-12z m233 -20 c19 -88 90 -162 167 -174 42 -7 40 -1 40 -119 0 -36 -1 -73 -1
-83 -1 -16 -18 -17 -211 -17 l-210 0 0 212 0 213 104 0 104 0 7 -32z m645
-181 l0 -212 -210 0 c-161 0 -210 3 -211 12 0 7 -1 51 -1 98 0 47 1 89 1 94 1
5 18 11 39 15 58 9 119 58 148 119 13 29 24 60 24 70 0 15 11 17 105 16 l105
-1 0 -211z m439 0 l-1 -212 -209 0 c-179 0 -209 2 -210 15 -4 39 -5 396 -2
402 2 4 98 8 213 8 l210 -1 -1 -212z m436 -2 l0 -210 -195 0 c-107 -1 -203 1
-212 3 -15 4 -17 24 -17 212 l1 208 211 -1 212 -2 0 -210z m438 12 c0 -111 -2
-207 -2 -212 -1 -7 -76 -10 -208 -10 l-208 0 -3 213 -2 212 212 0 213 -1 -2
-202z m437 -10 l0 -212 -207 1 c-115 1 -210 2 -213 3 -4 1 -4 294 -1 403 1 16
19 18 211 18 l210 0 0 -213z m435 -2 l0 -210 -200 -1 c-110 0 -205 1 -211 3
-14 5 -14 405 0 415 6 4 101 6 211 5 l200 -2 0 -210z m440 3 l0 -213 -210 0
-210 0 -3 213 -2 212 212 0 213 0 0 -212z"/>
<path d="M6198 6993 c7 -3 16 -2 19 1 4 3 -2 6 -13 5 -11 0 -14 -3 -6 -6z"/>
<path d="M6618 6993 c7 -3 16 -2 19 1 4 3 -2 6 -13 5 -11 0 -14 -3 -6 -6z"/>
<path d="M6991 6964 c0 -11 3 -14 6 -6 3 7 2 16 -1 19 -3 4 -6 -2 -5 -13z"/>
<path d="M1 6954 c0 -11 3 -14 6 -6 3 7 2 16 -1 19 -3 4 -6 -2 -5 -13z"/>
<path d="M6991 6924 c0 -11 3 -14 6 -6 3 7 2 16 -1 19 -3 4 -6 -2 -5 -13z"/>
<path d="M6991 6884 c0 -11 3 -14 6 -6 3 7 2 16 -1 19 -3 4 -6 -2 -5 -13z"/>
<path d="M6991 6844 c0 -11 3 -14 6 -6 3 7 2 16 -1 19 -3 4 -6 -2 -5 -13z"/>
<path d="M6991 6804 c0 -11 3 -14 6 -6 3 7 2 16 -1 19 -3 4 -6 -2 -5 -13z"/>
<path d="M6991 6764 c0 -11 3 -14 6 -6 3 7 2 16 -1 19 -3 4 -6 -2 -5 -13z"/>
<path d="M6991 6724 c0 -11 3 -14 6 -6 3 7 2 16 -1 19 -3 4 -6 -2 -5 -13z"/>
<path d="M6991 6684 c0 -11 3 -14 6 -6 3 7 2 16 -1 19 -3 4 -6 -2 -5 -13z"/>
<path d="M6991 6644 c0 -11 3 -14 6 -6 3 7 2 16 -1 19 -3 4 -6 -2 -5 -13z"/>
<path d="M6991 6484 c0 -11 3 -14 6 -6 3 7 2 16 -1 19 -3 4 -6 -2 -5 -13z"/>
<path d="M6991 6444 c0 -11 3 -14 6 -6 3 7 2 16 -1 19 -3 4 -6 -2 -5 -13z"/>
<path d="M6991 6404 c0 -11 3 -14 6 -6 3 7 2 16 -1 19 -3 4 -6 -2 -5 -13z"/>
<path d="M6992 6355 c0 -16 2 -22 5 -12 2 9 2 23 0 30 -3 6 -5 -1 -5 -18z"/>
<path d="M6992 6270 c0 -14 2 -19 5 -12 2 6 2 18 0 25 -3 6 -5 1 -5 -13z"/>
<path d="M1 6054 c0 -11 3 -14 6 -6 3 7 2 16 -1 19 -3 4 -6 -2 -5 -13z"/>
<path d="M6992 6030 c0 -14 2 -19 5 -12 2 6 2 18 0 25 -3 6 -5 1 -5 -13z"/>
<path d="M6991 5904 c0 -11 3 -14 6 -6 3 7 2 16 -1 19 -3 4 -6 -2 -5 -13z"/>
<path d="M6991 5864 c0 -11 3 -14 6 -6 3 7 2 16 -1 19 -3 4 -6 -2 -5 -13z"/>
<path d="M6992 5790 c0 -14 2 -19 5 -12 2 6 2 18 0 25 -3 6 -5 1 -5 -13z"/>
<path d="M6991 5624 c0 -11 3 -14 6 -6 3 7 2 16 -1 19 -3 4 -6 -2 -5 -13z"/>
<path d="M6992 5550 c0 -14 2 -19 5 -12 2 6 2 18 0 25 -3 6 -5 1 -5 -13z"/>
<path d="M6991 5424 c0 -11 3 -14 6 -6 3 7 2 16 -1 19 -3 4 -6 -2 -5 -13z"/>
<path d="M6991 5384 c0 -11 3 -14 6 -6 3 7 2 16 -1 19 -3 4 -6 -2 -5 -13z"/>
<path d="M6992 5310 c0 -14 2 -19 5 -12 2 6 2 18 0 25 -3 6 -5 1 -5 -13z"/>
<path d="M6991 5184 c0 -11 3 -14 6 -6 3 7 2 16 -1 19 -3 4 -6 -2 -5 -13z"/>
<path d="M6991 5144 c0 -11 3 -14 6 -6 3 7 2 16 -1 19 -3 4 -6 -2 -5 -13z"/>
<path d="M6991 5104 c0 -11 3 -14 6 -6 3 7 2 16 -1 19 -3 4 -6 -2 -5 -13z"/>
<path d="M6991 5044 c0 -11 3 -14 6 -6 3 7 2 16 -1 19 -3 4 -6 -2 -5 -13z"/>
<path d="M6991 5004 c0 -11 3 -14 6 -6 3 7 2 16 -1 19 -3 4 -6 -2 -5 -13z"/>
<path d="M6991 4964 c0 -11 3 -14 6 -6 3 7 2 16 -1 19 -3 4 -6 -2 -5 -13z"/>
<path d="M6991 4924 c0 -11 3 -14 6 -6 3 7 2 16 -1 19 -3 4 -6 -2 -5 -13z"/>
<path d="M6991 4884 c0 -11 3 -14 6 -6 3 7 2 16 -1 19 -3 4 -6 -2 -5 -13z"/>
<path d="M6991 4764 c0 -11 3 -14 6 -6 3 7 2 16 -1 19 -3 4 -6 -2 -5 -13z"/>
<path d="M6991 4724 c0 -11 3 -14 6 -6 3 7 2 16 -1 19 -3 4 -6 -2 -5 -13z"/>
<path d="M6991 4684 c0 -11 3 -14 6 -6 3 7 2 16 -1 19 -3 4 -6 -2 -5 -13z"/>
<path d="M6991 4644 c0 -11 3 -14 6 -6 3 7 2 16 -1 19 -3 4 -6 -2 -5 -13z"/>
<path d="M6991 4604 c0 -11 3 -14 6 -6 3 7 2 16 -1 19 -3 4 -6 -2 -5 -13z"/>
<path d="M6991 4564 c0 -11 3 -14 6 -6 3 7 2 16 -1 19 -3 4 -6 -2 -5 -13z"/>
<path d="M6991 4524 c0 -11 3 -14 6 -6 3 7 2 16 -1 19 -3 4 -6 -2 -5 -13z"/>
<path d="M6991 4484 c0 -11 3 -14 6 -6 3 7 2 16 -1 19 -3 4 -6 -2 -5 -13z"/>
<path d="M6992 4430 c0 -19 2 -27 5 -17 2 9 2 25 0 35 -3 9 -5 1 -5 -18z"/>
<path d="M6991 4244 c0 -11 3 -14 6 -6 3 7 2 16 -1 19 -3 4 -6 -2 -5 -13z"/>
<path d="M6991 4204 c0 -11 3 -14 6 -6 3 7 2 16 -1 19 -3 4 -6 -2 -5 -13z"/>
<path d="M6991 4164 c0 -11 3 -14 6 -6 3 7 2 16 -1 19 -3 4 -6 -2 -5 -13z"/>
<path d="M6991 4124 c0 -11 3 -14 6 -6 3 7 2 16 -1 19 -3 4 -6 -2 -5 -13z"/>
<path d="M6991 4084 c0 -11 3 -14 6 -6 3 7 2 16 -1 19 -3 4 -6 -2 -5 -13z"/>
<path d="M6991 4044 c0 -11 3 -14 6 -6 3 7 2 16 -1 19 -3 4 -6 -2 -5 -13z"/>
<path d="M6991 4004 c0 -11 3 -14 6 -6 3 7 2 16 -1 19 -3 4 -6 -2 -5 -13z"/>
<path d="M1 3894 c0 -11 3 -14 6 -6 3 7 2 16 -1 19 -3 4 -6 -2 -5 -13z"/>
<path d="M6991 3884 c0 -11 3 -14 6 -6 3 7 2 16 -1 19 -3 4 -6 -2 -5 -13z"/>
<path d="M6991 3844 c0 -11 3 -14 6 -6 3 7 2 16 -1 19 -3 4 -6 -2 -5 -13z"/>
<path d="M6992 3795 c0 -16 2 -22 5 -12 2 9 2 23 0 30 -3 6 -5 -1 -5 -18z"/>
<path d="M6992 3710 c0 -14 2 -19 5 -12 2 6 2 18 0 25 -3 6 -5 1 -5 -13z"/>
<path d="M6991 3584 c0 -11 3 -14 6 -6 3 7 2 16 -1 19 -3 4 -6 -2 -5 -13z"/>
<path d="M6991 3544 c0 -11 3 -14 6 -6 3 7 2 16 -1 19 -3 4 -6 -2 -5 -13z"/>
<path d="M1 3483 c0 -25 1 -26 9 -8 12 27 12 35 0 35 -5 0 -10 -12 -9 -27z"/>
<path d="M6991 3344 c0 -11 3 -14 6 -6 3 7 2 16 -1 19 -3 4 -6 -2 -5 -13z"/>
<path d="M6991 3304 c0 -11 3 -14 6 -6 3 7 2 16 -1 19 -3 4 -6 -2 -5 -13z"/>
<path d="M6992 3230 c0 -14 2 -19 5 -12 2 6 2 18 0 25 -3 6 -5 1 -5 -13z"/>
<path d="M6991 3164 c0 -11 3 -14 6 -6 3 7 2 16 -1 19 -3 4 -6 -2 -5 -13z"/>
<path d="M6992 3115 c0 -16 2 -22 5 -12 2 9 2 23 0 30 -3 6 -5 -1 -5 -18z"/>
<path d="M6992 2990 c0 -14 2 -19 5 -12 2 6 2 18 0 25 -3 6 -5 1 -5 -13z"/>
<path d="M6991 2864 c0 -11 3 -14 6 -6 3 7 2 16 -1 19 -3 4 -6 -2 -5 -13z"/>
<path d="M6991 2824 c0 -11 3 -14 6 -6 3 7 2 16 -1 19 -3 4 -6 -2 -5 -13z"/>
<path d="M6992 2750 c0 -14 2 -19 5 -12 2 6 2 18 0 25 -3 6 -5 1 -5 -13z"/>
<path d="M6991 2484 c0 -11 3 -14 6 -6 3 7 2 16 -1 19 -3 4 -6 -2 -5 -13z"/>
<path d="M6991 2444 c0 -11 3 -14 6 -6 3 7 2 16 -1 19 -3 4 -6 -2 -5 -13z"/>
<path d="M6991 2404 c0 -11 3 -14 6 -6 3 7 2 16 -1 19 -3 4 -6 -2 -5 -13z"/>
<path d="M6991 2364 c0 -11 3 -14 6 -6 3 7 2 16 -1 19 -3 4 -6 -2 -5 -13z"/>
<path d="M6991 2324 c0 -11 3 -14 6 -6 3 7 2 16 -1 19 -3 4 -6 -2 -5 -13z"/>
<path d="M6991 2284 c0 -11 3 -14 6 -6 3 7 2 16 -1 19 -3 4 -6 -2 -5 -13z"/>
<path d="M6991 2244 c0 -11 3 -14 6 -6 3 7 2 16 -1 19 -3 4 -6 -2 -5 -13z"/>
<path d="M6991 2124 c0 -11 3 -14 6 -6 3 7 2 16 -1 19 -3 4 -6 -2 -5 -13z"/>
<path d="M6991 2084 c0 -11 3 -14 6 -6 3 7 2 16 -1 19 -3 4 -6 -2 -5 -13z"/>
<path d="M6991 2044 c0 -11 3 -14 6 -6 3 7 2 16 -1 19 -3 4 -6 -2 -5 -13z"/>
<path d="M6991 2004 c0 -11 3 -14 6 -6 3 7 2 16 -1 19 -3 4 -6 -2 -5 -13z"/>
<path d="M6991 1964 c0 -11 3 -14 6 -6 3 7 2 16 -1 19 -3 4 -6 -2 -5 -13z"/>
<path d="M6991 1924 c0 -11 3 -14 6 -6 3 7 2 16 -1 19 -3 4 -6 -2 -5 -13z"/>
<path d="M6992 1875 c0 -16 2 -22 5 -12 2 9 2 23 0 30 -3 6 -5 -1 -5 -18z"/>
<path d="M6992 1790 c0 -14 2 -19 5 -12 2 6 2 18 0 25 -3 6 -5 1 -5 -13z"/>
<path d="M6590 1749 c0 -4 90 -7 200 -6 170 2 200 0 204 -13 2 -9 4 -7 5 6 1
21 -2 21 -204 21 -113 -1 -205 -4 -205 -8z"/>
<path d="M6991 1664 c0 -11 3 -14 6 -6 3 7 2 16 -1 19 -3 4 -6 -2 -5 -13z"/>
<path d="M6991 1624 c0 -11 3 -14 6 -6 3 7 2 16 -1 19 -3 4 -6 -2 -5 -13z"/>
<path d="M6992 1550 c0 -14 2 -19 5 -12 2 6 2 18 0 25 -3 6 -5 1 -5 -13z"/>
<path d="M6991 1424 c0 -11 3 -14 6 -6 3 7 2 16 -1 19 -3 4 -6 -2 -5 -13z"/>
<path d="M6991 1384 c0 -11 3 -14 6 -6 3 7 2 16 -1 19 -3 4 -6 -2 -5 -13z"/>
<path d="M2 1265 c0 -16 2 -22 5 -12 2 9 2 23 0 30 -3 6 -5 -1 -5 -18z"/>
<path d="M6991 1184 c0 -11 3 -14 6 -6 3 7 2 16 -1 19 -3 4 -6 -2 -5 -13z"/>
<path d="M6991 1144 c0 -11 3 -14 6 -6 3 7 2 16 -1 19 -3 4 -6 -2 -5 -13z"/>
<path d="M6992 1070 c0 -14 2 -19 5 -12 2 6 2 18 0 25 -3 6 -5 1 -5 -13z"/>
<path d="M6991 1004 c0 -11 3 -14 6 -6 3 7 2 16 -1 19 -3 4 -6 -2 -5 -13z"/>
<path d="M6992 955 c0 -16 2 -22 5 -12 2 9 2 23 0 30 -3 6 -5 -1 -5 -18z"/>
<path d="M6992 830 c0 -14 2 -19 5 -12 2 6 2 18 0 25 -3 6 -5 1 -5 -13z"/>
<path d="M6991 704 c0 -11 3 -14 6 -6 3 7 2 16 -1 19 -3 4 -6 -2 -5 -13z"/>
<path d="M6991 664 c0 -11 3 -14 6 -6 3 7 2 16 -1 19 -3 4 -6 -2 -5 -13z"/>
<path d="M6991 624 c0 -11 3 -14 6 -6 3 7 2 16 -1 19 -3 4 -6 -2 -5 -13z"/>
<path d="M6991 584 c0 -11 3 -14 6 -6 3 7 2 16 -1 19 -3 4 -6 -2 -5 -13z"/>
<path d="M6992 510 c0 -14 2 -19 5 -12 2 6 2 18 0 25 -3 6 -5 1 -5 -13z"/>
<path d="M6991 384 c0 -11 3 -14 6 -6 3 7 2 16 -1 19 -3 4 -6 -2 -5 -13z"/>
<path d="M6991 344 c0 -11 3 -14 6 -6 3 7 2 16 -1 19 -3 4 -6 -2 -5 -13z"/>
<path d="M6992 270 c0 -14 2 -19 5 -12 2 6 2 18 0 25 -3 6 -5 1 -5 -13z"/>
<path d="M6991 144 c0 -11 3 -14 6 -6 3 7 2 16 -1 19 -3 4 -6 -2 -5 -13z"/>
<path d="M6991 104 c0 -11 3 -14 6 -6 3 7 2 16 -1 19 -3 4 -6 -2 -5 -13z"/>
<path d="M6992 25 c0 -17 2 -22 5 -12 2 9 2 23 0 30 -3 6 -5 -1 -5 -18z"/>
<path d="M1 14 c0 -11 3 -14 6 -6 3 7 2 16 -1 19 -3 4 -6 -2 -5 -13z"/>
<path d="M28 3 c7 -3 16 -2 19 1 4 3 -2 6 -13 5 -11 0 -14 -3 -6 -6z"/>
<path d="M128 3 c7 -3 16 -2 19 1 4 3 -2 6 -13 5 -11 0 -14 -3 -6 -6z"/>
<path d="M168 3 c7 -3 16 -2 19 1 4 3 -2 6 -13 5 -11 0 -14 -3 -6 -6z"/>
<path d="M238 3 c6 -2 18 -2 25 0 6 3 1 5 -13 5 -14 0 -19 -2 -12 -5z"/>
<path d="M368 3 c7 -3 16 -2 19 1 4 3 -2 6 -13 5 -11 0 -14 -3 -6 -6z"/>
<path d="M478 3 c6 -2 18 -2 25 0 6 3 1 5 -13 5 -14 0 -19 -2 -12 -5z"/>
<path d="M548 3 c7 -3 16 -2 19 1 4 3 -2 6 -13 5 -11 0 -14 -3 -6 -6z"/>
<path d="M593 3 c9 -2 23 -2 30 0 6 3 -1 5 -18 5 -16 0 -22 -2 -12 -5z"/>
<path d="M648 3 c7 -3 16 -2 19 1 4 3 -2 6 -13 5 -11 0 -14 -3 -6 -6z"/>
<path d="M768 3 c7 -3 16 -2 19 1 4 3 -2 6 -13 5 -11 0 -14 -3 -6 -6z"/>
<path d="M1008 3 c7 -3 16 -2 19 1 4 3 -2 6 -13 5 -11 0 -14 -3 -6 -6z"/>
<path d="M1048 3 c7 -3 16 -2 19 1 4 3 -2 6 -13 5 -11 0 -14 -3 -6 -6z"/>
<path d="M1118 3 c6 -2 18 -2 25 0 6 3 1 5 -13 5 -14 0 -19 -2 -12 -5z"/>
<path d="M1248 3 c7 -3 16 -2 19 1 4 3 -2 6 -13 5 -11 0 -14 -3 -6 -6z"/>
<path d="M1388 3 c7 -3 16 -2 19 1 4 3 -2 6 -13 5 -11 0 -14 -3 -6 -6z"/>
<path d="M1428 3 c7 -3 16 -2 19 1 4 3 -2 6 -13 5 -11 0 -14 -3 -6 -6z"/>
<path d="M1468 3 c7 -3 16 -2 19 1 4 3 -2 6 -13 5 -11 0 -14 -3 -6 -6z"/>
<path d="M1508 3 c7 -3 16 -2 19 1 4 3 -2 6 -13 5 -11 0 -14 -3 -6 -6z"/>
<path d="M1548 3 c7 -3 16 -2 19 1 4 3 -2 6 -13 5 -11 0 -14 -3 -6 -6z"/>
<path d="M1588 3 c7 -3 16 -2 19 1 4 3 -2 6 -13 5 -11 0 -14 -3 -6 -6z"/>
<path d="M1628 3 c7 -3 16 -2 19 1 4 3 -2 6 -13 5 -11 0 -14 -3 -6 -6z"/>
<path d="M1668 3 c7 -3 16 -2 19 1 4 3 -2 6 -13 5 -11 0 -14 -3 -6 -6z"/>
<path d="M1788 3 c7 -3 16 -2 19 1 4 3 -2 6 -13 5 -11 0 -14 -3 -6 -6z"/>
<path d="M1828 3 c7 -3 16 -2 19 1 4 3 -2 6 -13 5 -11 0 -14 -3 -6 -6z"/>
<path d="M1868 3 c7 -3 16 -2 19 1 4 3 -2 6 -13 5 -11 0 -14 -3 -6 -6z"/>
<path d="M1913 3 c9 -2 23 -2 30 0 6 3 -1 5 -18 5 -16 0 -22 -2 -12 -5z"/>
<path d="M1998 3 c6 -2 18 -2 25 0 6 3 1 5 -13 5 -14 0 -19 -2 -12 -5z"/>
<path d="M2128 3 c7 -3 16 -2 19 1 4 3 -2 6 -13 5 -11 0 -14 -3 -6 -6z"/>
<path d="M2238 3 c6 -2 18 -2 25 0 6 3 1 5 -13 5 -14 0 -19 -2 -12 -5z"/>
<path d="M2368 3 c7 -3 16 -2 19 1 4 3 -2 6 -13 5 -11 0 -14 -3 -6 -6z"/>
<path d="M2408 3 c7 -3 16 -2 19 1 4 3 -2 6 -13 5 -11 0 -14 -3 -6 -6z"/>
<path d="M2478 3 c6 -2 18 -2 25 0 6 3 1 5 -13 5 -14 0 -19 -2 -12 -5z"/>
<path d="M2718 3 c6 -2 18 -2 25 0 6 3 1 5 -13 5 -14 0 -19 -2 -12 -5z"/>
<path d="M2848 3 c7 -3 16 -2 19 1 4 3 -2 6 -13 5 -11 0 -14 -3 -6 -6z"/>
<path d="M2888 3 c7 -3 16 -2 19 1 4 3 -2 6 -13 5 -11 0 -14 -3 -6 -6z"/>
<path d="M2958 3 c6 -2 18 -2 25 0 6 3 1 5 -13 5 -14 0 -19 -2 -12 -5z"/>
<path d="M3088 3 c7 -3 16 -2 19 1 4 3 -2 6 -13 5 -11 0 -14 -3 -6 -6z"/>
<path d="M3128 3 c7 -3 16 -2 19 1 4 3 -2 6 -13 5 -11 0 -14 -3 -6 -6z"/>
<path d="M3228 3 c7 -3 16 -2 19 1 4 3 -2 6 -13 5 -11 0 -14 -3 -6 -6z"/>
<path d="M3268 3 c7 -3 16 -2 19 1 4 3 -2 6 -13 5 -11 0 -14 -3 -6 -6z"/>
<path d="M3308 3 c7 -3 16 -2 19 1 4 3 -2 6 -13 5 -11 0 -14 -3 -6 -6z"/>
<path d="M3348 3 c7 -3 16 -2 19 1 4 3 -2 6 -13 5 -11 0 -14 -3 -6 -6z"/>
<path d="M3388 3 c7 -3 16 -2 19 1 4 3 -2 6 -13 5 -11 0 -14 -3 -6 -6z"/>
<path d="M3428 3 c7 -3 16 -2 19 1 4 3 -2 6 -13 5 -11 0 -14 -3 -6 -6z"/>
<path d="M3548 3 c7 -3 16 -2 19 1 4 3 -2 6 -13 5 -11 0 -14 -3 -6 -6z"/>
<path d="M3588 3 c7 -3 16 -2 19 1 4 3 -2 6 -13 5 -11 0 -14 -3 -6 -6z"/>
<path d="M3628 3 c7 -3 16 -2 19 1 4 3 -2 6 -13 5 -11 0 -14 -3 -6 -6z"/>
<path d="M3668 3 c7 -3 16 -2 19 1 4 3 -2 6 -13 5 -11 0 -14 -3 -6 -6z"/>
<path d="M3708 3 c7 -3 16 -2 19 1 4 3 -2 6 -13 5 -11 0 -14 -3 -6 -6z"/>
<path d="M3748 3 c7 -3 16 -2 19 1 4 3 -2 6 -13 5 -11 0 -14 -3 -6 -6z"/>
<path d="M3788 3 c7 -3 16 -2 19 1 4 3 -2 6 -13 5 -11 0 -14 -3 -6 -6z"/>
<path d="M3833 3 c9 -2 23 -2 30 0 6 3 -1 5 -18 5 -16 0 -22 -2 -12 -5z"/>
<path d="M3968 3 c7 -3 16 -2 19 1 4 3 -2 6 -13 5 -11 0 -14 -3 -6 -6z"/>
<path d="M4008 3 c7 -3 16 -2 19 1 4 3 -2 6 -13 5 -11 0 -14 -3 -6 -6z"/>
<path d="M4078 3 c6 -2 18 -2 25 0 6 3 1 5 -13 5 -14 0 -19 -2 -12 -5z"/>
<path d="M4208 3 c7 -3 16 -2 19 1 4 3 -2 6 -13 5 -11 0 -14 -3 -6 -6z"/>
<path d="M4248 3 c7 -3 16 -2 19 1 4 3 -2 6 -13 5 -11 0 -14 -3 -6 -6z"/>
<path d="M4298 3 c12 -2 30 -2 40 0 9 3 -1 5 -23 4 -22 0 -30 -2 -17 -4z"/>
<path d="M4433 3 c9 -2 23 -2 30 0 6 3 -1 5 -18 5 -16 0 -22 -2 -12 -5z"/>
<path d="M4488 3 c7 -3 16 -2 19 1 4 3 -2 6 -13 5 -11 0 -14 -3 -6 -6z"/>
<path d="M4608 3 c7 -3 16 -2 19 1 4 3 -2 6 -13 5 -11 0 -14 -3 -6 -6z"/>
<path d="M4648 3 c7 -3 16 -2 19 1 4 3 -2 6 -13 5 -11 0 -14 -3 -6 -6z"/>
<path d="M4718 3 c6 -2 18 -2 25 0 6 3 1 5 -13 5 -14 0 -19 -2 -12 -5z"/>
<path d="M4848 3 c7 -3 16 -2 19 1 4 3 -2 6 -13 5 -11 0 -14 -3 -6 -6z"/>
<path d="M4888 3 c7 -3 16 -2 19 1 4 3 -2 6 -13 5 -11 0 -14 -3 -6 -6z"/>
<path d="M4958 3 c6 -2 18 -2 25 0 6 3 1 5 -13 5 -14 0 -19 -2 -12 -5z"/>
<path d="M5028 3 c7 -3 16 -2 19 1 4 3 -2 6 -13 5 -11 0 -14 -3 -6 -6z"/>
<path d="M5073 3 c9 -2 23 -2 30 0 6 3 -1 5 -18 5 -16 0 -22 -2 -12 -5z"/>
<path d="M5128 3 c7 -3 16 -2 19 1 4 3 -2 6 -13 5 -11 0 -14 -3 -6 -6z"/>
<path d="M5358 3 c6 -2 18 -2 25 0 6 3 1 5 -13 5 -14 0 -19 -2 -12 -5z"/>
<path d="M5488 3 c7 -3 16 -2 19 1 4 3 -2 6 -13 5 -11 0 -14 -3 -6 -6z"/>
<path d="M5528 3 c7 -3 16 -2 19 1 4 3 -2 6 -13 5 -11 0 -14 -3 -6 -6z"/>
<path d="M5598 3 c6 -2 18 -2 25 0 6 3 1 5 -13 5 -14 0 -19 -2 -12 -5z"/>
<path d="M5768 3 c7 -3 16 -2 19 1 4 3 -2 6 -13 5 -11 0 -14 -3 -6 -6z"/>
<path d="M5888 3 c7 -3 16 -2 19 1 4 3 -2 6 -13 5 -11 0 -14 -3 -6 -6z"/>
<path d="M5928 3 c7 -3 16 -2 19 1 4 3 -2 6 -13 5 -11 0 -14 -3 -6 -6z"/>
<path d="M5998 3 c6 -2 18 -2 25 0 6 3 1 5 -13 5 -14 0 -19 -2 -12 -5z"/>
<path d="M6073 3 c9 -2 23 -2 30 0 6 3 -1 5 -18 5 -16 0 -22 -2 -12 -5z"/>
<path d="M6238 3 c6 -2 18 -2 25 0 6 3 1 5 -13 5 -14 0 -19 -2 -12 -5z"/>
<path d="M6368 3 c7 -3 16 -2 19 1 4 3 -2 6 -13 5 -11 0 -14 -3 -6 -6z"/>
<path d="M6428 3 c7 -3 16 -2 19 1 4 3 -2 6 -13 5 -11 0 -14 -3 -6 -6z"/>
<path d="M6468 3 c7 -3 16 -2 19 1 4 3 -2 6 -13 5 -11 0 -14 -3 -6 -6z"/>
<path d="M6618 3 c6 -2 18 -2 25 0 6 3 1 5 -13 5 -14 0 -19 -2 -12 -5z"/>
<path d="M6668 3 c7 -3 16 -2 19 1 4 3 -2 6 -13 5 -11 0 -14 -3 -6 -6z"/>
<path d="M6708 3 c7 -3 16 -2 19 1 4 3 -2 6 -13 5 -11 0 -14 -3 -6 -6z"/>
<path d="M6748 3 c7 -3 16 -2 19 1 4 3 -2 6 -13 5 -11 0 -14 -3 -6 -6z"/>
<path d="M6788 3 c7 -3 16 -2 19 1 4 3 -2 6 -13 5 -11 0 -14 -3 -6 -6z"/>
<path d="M6828 3 c7 -3 16 -2 19 1 4 3 -2 6 -13 5 -11 0 -14 -3 -6 -6z"/>
<path d="M6868 3 c7 -3 16 -2 19 1 4 3 -2 6 -13 5 -11 0 -14 -3 -6 -6z"/>
<path d="M6908 3 c7 -3 16 -2 19 1 4 3 -2 6 -13 5 -11 0 -14 -3 -6 -6z"/>
<path d="M6948 3 c6 -2 18 -2 25 0 6 3 1 5 -13 5 -14 0 -19 -2 -12 -5z"/>
</g>
</svg>
